<svg width="1200" height="630" viewBox="0 0 1200 630" fill="none" xmlns="http://www.w3.org/2000/svg">
  <!-- Open Graph / Social Media Preview -->
  <rect width="1200" height="630" fill="#F0FDFA"/>
  <!-- Subtle grid pattern -->
  <rect width="1200" height="630" fill="url(#ogp)" opacity="0.03"/>
  <!-- Centered content -->
  <!-- Logo mark -->
  <rect x="462" y="140" width="96" height="96" rx="24" fill="url(#ogg)"/>
  <path d="M492 168C492 163.582 495.582 160 500 160H524C528.418 160 532 163.582 532 168V192C532 196.418 528.418 200 524 200H500C495.582 200 492 196.418 492 192V168Z" fill="white" fill-opacity="0.9"/>
  <path d="M502 178H522M502 188H512" stroke="url(#ogg)" stroke-width="4.5" stroke-linecap="round"/>
  <!-- App name -->
  <text x="572" y="205" font-family="Inter, -apple-system, BlinkMacSystemFont, sans-serif" font-size="56" font-weight="700" fill="url(#ogg)">SnapCard</text>
  <!-- Tagline -->
  <text x="600" y="320" font-family="Inter, -apple-system, BlinkMacSystemFont, sans-serif" font-size="28" font-weight="400" fill="#64748B" text-anchor="middle">AI-Powered Flashcard Generator</text>
  <!-- Subtitle -->
  <text x="600" y="365" font-family="Inter, -apple-system, BlinkMacSystemFont, sans-serif" font-size="22" font-weight="400" fill="#94A3B8" text-anchor="middle">Smart spaced repetition for effective learning</text>
  <!-- Bottom accent line -->
  <rect x="500" y="430" width="200" height="4" rx="2" fill="url(#ogg)"/>
  <!-- URL -->
  <text x="600" y="500" font-family="Inter, -apple-system, BlinkMacSystemFont, sans-serif" font-size="18" font-weight="500" fill="#94A3B8" text-anchor="middle">usesnapcard.com</text>
  <defs>
    <linearGradient id="ogg" x1="400" y1="140" x2="800" y2="400" gradientUnits="userSpaceOnUse">
      <stop stop-color="#0D9488"/>
      <stop offset="1" stop-color="#0F766E"/>
    </linearGradient>
    <pattern id="ogp" x="0" y="0" width="40" height="40" patternUnits="userSpaceOnUse">
      <rect x="0" y="0" width="1" height="40" fill="#0D9488"/>
      <rect x="0" y="0" width="40" height="1" fill="#0D9488"/>
    </pattern>
  </defs>
</svg>
